# xmcd
#
# Track frame offsets:
#	150
#	2682
#	20384
#	30308
#	61060
#	69167
#	93255
#	108299
#	130286
#	136493
#	155217
#	161458
#	188122
#	190326
#
# Disc length: 2613 seconds
#
# Revision: 1
# Processed by: cddbd v1.5.2PL0 Copyright (c) Steve Scherf et al.
# Submitted via: audiograbber 1.83.01
#
DISCID=ac0a330e
DTITLE=NRPS - 92-04-17 Wetlands Reserve, New York NY
DYEAR=1900
DGENRE=
TTITLE0=Tuning and Talk 2
TTITLE1=Henry
TTITLE2=Tuning and Band Intros
TTITLE3=Glendale Train
TTITLE4=Tuning and Talk 2
TTITLE5=Midnight Moonlight
TTITLE6=Tuning and Talk 2
TTITLE7=T For Texas
TTITLE8=Tuning and Talk 2
TTITLE9=On Top Of Old Smokey
TTITLE10=Tuning and Talk 2
TTITLE11=Friend Of The Devil
TTITLE12=Tuning and Talk 2
TTITLE13=Panama Red
EXTD=
EXTT0=
EXTT1=
EXTT2=
EXTT3=
EXTT4=
EXTT5=
EXTT6=
EXTT7=
EXTT8=
EXTT9=
EXTT10=
EXTT11=
EXTT12=
EXTT13=
PLAYORDER=
